<svg id="Layer_1" data-name="Layer 1" xmlns="http://www.w3.org/2000/svg" viewBox="0 0 1861.63 393.81"><defs><style>.cls-1{fill:#fff;}</style></defs><title>logo-white</title><path class="cls-1" d="M532.72,889.19l-3.11-5.39,11.61-6.63q14.31-7.89,14.3-25.09,0-32.15-48.93-32.14H487.51V958.86h-6.22V813.72h25.3q27.38,0,41.26,10t13.9,28.31q0,20.73-17.42,30.48Z" transform="translate(-53.28 -803.18)"/><path class="cls-1" d="M640.12,898.52l28.2,60.34h-6.84l-29-62.2,3.63-1.77q3.21-1.54,4.46-2.28t4.14-2.59a18.58,18.58,0,0,0,4.36-3.63c1-1.17,2-2.55,3.21-4.14a16.09,16.09,0,0,0,2.59-5.4,24.12,24.12,0,0,0,.83-6.53q0-13.07-12.44-19.28t-30.89-6.22H595.75v114h-6.22V838.6h22.81q24.46,0,37,8.5t12.54,23.22a25,25,0,0,1-6.42,16.9A43.44,43.44,0,0,1,640.12,898.52Z" transform="translate(-53.28 -803.18)"/><path class="cls-1" d="M707.51,952.64h67.6L732.6,852.49,687.4,958.86h-6.64L732.6,836.52l51.84,122.34H707.51Z" transform="translate(-53.28 -803.18)"/><path class="cls-1" d="M791.49,967q5.6,27.16,32.14,27.16,17.21,0,22.81-9.64t5.6-28.09V838.6h6.22V956.38c0,3.86-.08,7-.21,9.33s-.49,5.52-1,9.53a24.36,24.36,0,0,1-3.11,9.65,58.21,58.21,0,0,1-5.91,7.67,21.05,21.05,0,0,1-9.85,5.91,50.83,50.83,0,0,1-14.51,1.86q-32.57,0-39.61-33.38Z" transform="translate(-53.28 -803.18)"/><path class="cls-1" d="M888.32,838.6,933.52,945l31.31-73.61L995.94,945l42.5-100.15H904.7V838.6h143.08L995.94,960.94l-31.11-73.61-31.31,73.61L881.69,838.6Z" transform="translate(-53.28 -803.18)"/><path class="cls-1" d="M1082.19,952.64h67.6l-42.51-100.15-45.2,106.37h-6.64l51.84-122.34,51.84,122.34h-76.93Z" transform="translate(-53.28 -803.18)"/><path class="cls-1" d="M1252,952.64v6.22h-69.26V838.6H1189v114Z" transform="translate(-53.28 -803.18)"/><path class="cls-1" d="M1344.08,813.72V958.86h-6.22V813.72Zm85.22,0L1359.63,883l76.31,75.89H1427L1350.71,883l69.67-69.25Z" transform="translate(-53.28 -803.18)"/><path class="cls-1" d="M1460,838.6v60.13q0,30.9,9.85,43.44t27.06,12.55q17.2,0,27.06-12.55t9.85-43.44V838.6H1540v60.13q0,62.21-43.13,62.21t-43.13-62.21V838.6Z" transform="translate(-53.28 -803.18)"/><path class="cls-1" d="M1596.84,952.64h80V847.31L1630.23,894l-46.66-46.65V958.86l-6.22-.2V838.6h6.22l46.66,46.65,46.65-46.65h6.22V958.86l-86.26-.2Z" transform="translate(-53.28 -803.18)"/><path class="cls-1" d="M1733.49,952.64h67.6l-42.51-100.15-45.21,106.37h-6.63l51.84-122.34,51.84,122.34h-76.93Z" transform="translate(-53.28 -803.18)"/><path class="cls-1" d="M1884.65,898.52l28.2,60.34H1906l-29-62.2,3.62-1.77c2.15-1,3.63-1.79,4.46-2.28s2.21-1.34,4.15-2.59a18.72,18.72,0,0,0,4.35-3.63q1.45-1.75,3.22-4.14a16.48,16.48,0,0,0,2.59-5.4,24.52,24.52,0,0,0,.83-6.53q0-13.07-12.44-19.28t-30.9-6.22h-16.59v114h-6.22V838.6h22.81q24.47,0,37,8.5t12.55,23.22a25,25,0,0,1-6.43,16.9A43.4,43.4,0,0,1,1884.65,898.52Z" transform="translate(-53.28 -803.18)"/><path class="cls-1" d="M653,1046.58,610.91,1171h-9.6l-38.57-111.62L524,1171h-9.6l-42.3-124.42h9.6l37.85,112,38.93-112h8.7l38.75,112.15,38.21-112.15Z" transform="translate(-53.28 -803.18)"/><path class="cls-1" d="M773.35,1126.74h-79.8a38.79,38.79,0,0,0,5.51,19.29,35.28,35.28,0,0,0,14,13.06,44.69,44.69,0,0,0,36.62,1.33,32.76,32.76,0,0,0,12.88-9.68l5.16,5.86a39.66,39.66,0,0,1-15.2,11.2,52.93,52.93,0,0,1-44.52-2.13A43.75,43.75,0,0,1,691,1149a48,48,0,0,1-6.14-24.35,50.47,50.47,0,0,1,5.78-24.26,42.57,42.57,0,0,1,15.91-16.8,46,46,0,0,1,45.41-.09,42.4,42.4,0,0,1,15.81,16.62,50,50,0,0,1,5.78,24.17Zm-61.67-37.06A33.29,33.29,0,0,0,699.15,1102a39.9,39.9,0,0,0-5.42,17.86h71.09a37.13,37.13,0,0,0-5.33-17.77,34.49,34.49,0,0,0-30.21-16.71A35.58,35.58,0,0,0,711.68,1089.68Z" transform="translate(-53.28 -803.18)"/><path class="cls-1" d="M896.87,1083.46a42.55,42.55,0,0,1,16.44,16.71,49.61,49.61,0,0,1,6,24.44,49.1,49.1,0,0,1-6,24.35,43.28,43.28,0,0,1-16.44,16.71,46.21,46.21,0,0,1-23.46,6,43.14,43.14,0,0,1-22.48-6,40.42,40.42,0,0,1-15.55-16.61V1171h-8.53V1039.12h8.88v60.25a40.06,40.06,0,0,1,15.47-16.08,43.44,43.44,0,0,1,22.21-5.78A46.76,46.76,0,0,1,896.87,1083.46Zm-4.79,75.27a35.48,35.48,0,0,0,13.41-13.86,44.42,44.42,0,0,0,0-40.52,35.57,35.57,0,0,0-13.41-13.87,37.48,37.48,0,0,0-19.2-5,37,37,0,0,0-19.11,5,35.8,35.8,0,0,0-13.33,13.87,44.5,44.5,0,0,0,0,40.52,35.7,35.7,0,0,0,13.33,13.86,36.91,36.91,0,0,0,19.11,5A37.39,37.39,0,0,0,892.08,1158.73Z" transform="translate(-53.28 -803.18)"/><path class="cls-1" d="M1053.54,1167.18q-12.36-4.71-19.28-12.18l4.08-6.75q6.59,6.93,17.69,11.28a63.28,63.28,0,0,0,23.37,4.36q17.77,0,26.84-6.76t9.06-17.59q0-8.36-4.8-13.33a31.66,31.66,0,0,0-11.9-7.64,162.5,162.5,0,0,0-19.2-5.51,187,187,0,0,1-22-6.58,35,35,0,0,1-14-9.86q-5.78-6.67-5.78-17.87a30.33,30.33,0,0,1,4.8-16.61q4.8-7.56,14.67-12t24.61-4.44a69.22,69.22,0,0,1,20.26,3,59.61,59.61,0,0,1,17.24,8.17l-3.37,7.29a57.91,57.91,0,0,0-16.44-7.82,61.86,61.86,0,0,0-17.69-2.67q-17.24,0-26.13,6.94a21.74,21.74,0,0,0-8.88,17.95q0,8.36,4.8,13.33a31.83,31.83,0,0,0,11.9,7.64,181.33,181.33,0,0,0,19.38,5.69,182.16,182.16,0,0,1,21.86,6.57,36,36,0,0,1,13.95,9.69q5.78,6.49,5.78,17.51a29.49,29.49,0,0,1-4.89,16.52q-4.89,7.47-15,11.91t-24.88,4.45A72.42,72.42,0,0,1,1053.54,1167.18Z" transform="translate(-53.28 -803.18)"/><path class="cls-1" d="M1256.42,1126.74h-79.8a38.69,38.69,0,0,0,5.51,19.29,35.22,35.22,0,0,0,13.95,13.06,44.67,44.67,0,0,0,36.61,1.33,32.73,32.73,0,0,0,12.89-9.68l5.15,5.86a39.63,39.63,0,0,1-15.19,11.2,52.93,52.93,0,0,1-44.52-2.13,43.84,43.84,0,0,1-17-16.71,48,48,0,0,1-6.13-24.35,50.36,50.36,0,0,1,5.78-24.26,42.55,42.55,0,0,1,15.9-16.8,46,46,0,0,1,45.41-.09,42.35,42.35,0,0,1,15.82,16.62,50,50,0,0,1,5.78,24.17Zm-61.67-37.06a33.15,33.15,0,0,0-12.53,12.27,39.9,39.9,0,0,0-5.42,17.86h71.09a37.24,37.24,0,0,0-5.33-17.77,34.5,34.5,0,0,0-30.22-16.71A35.54,35.54,0,0,0,1194.75,1089.68Z" transform="translate(-53.28 -803.18)"/><path class="cls-1" d="M1331.78,1082.93q9.06-5.42,22-5.42v8.71l-2.13-.18q-15.47,0-24.17,9.69t-8.71,26.92V1171h-8.88v-92.78h8.53v20.26A32.09,32.09,0,0,1,1331.78,1082.93Z" transform="translate(-53.28 -803.18)"/><path class="cls-1" d="M1482.85,1078.22,1440.9,1171h-9.06l-41.77-92.78h9.42l37,83,37.32-83Z" transform="translate(-53.28 -803.18)"/><path class="cls-1" d="M1527.28,1053.61a6.75,6.75,0,0,1-2.13-5.07,7.29,7.29,0,0,1,7.29-7.29,7.19,7.19,0,0,1,5.15,2,6.73,6.73,0,0,1,2.13,5.06,7.27,7.27,0,0,1-7.28,7.29A7.19,7.19,0,0,1,1527.28,1053.61Zm.71,24.61h8.89V1171H1528Z" transform="translate(-53.28 -803.18)"/><path class="cls-1" d="M1612.77,1165.67a43.38,43.38,0,0,1-16.71-16.8,52.1,52.1,0,0,1,0-48.7,42.82,42.82,0,0,1,16.71-16.71,48.81,48.81,0,0,1,24.17-6,46.82,46.82,0,0,1,20.35,4.35,36.78,36.78,0,0,1,14.84,12.71l-6.58,4.8a31.51,31.51,0,0,0-12.35-10.4,37.78,37.78,0,0,0-16.26-3.46,38.71,38.71,0,0,0-19.46,4.89,34.76,34.76,0,0,0-13.51,13.77,45.16,45.16,0,0,0,0,40.88,34.76,34.76,0,0,0,13.51,13.77,38.71,38.71,0,0,0,19.46,4.89,37.78,37.78,0,0,0,16.26-3.47,31.48,31.48,0,0,0,12.35-10.39l6.58,4.8a36.68,36.68,0,0,1-14.84,12.7,46.68,46.68,0,0,1-20.35,4.36A48.23,48.23,0,0,1,1612.77,1165.67Z" transform="translate(-53.28 -803.18)"/><path class="cls-1" d="M1801.34,1126.74h-79.8a38.79,38.79,0,0,0,5.51,19.29,35.22,35.22,0,0,0,14,13.06,44.67,44.67,0,0,0,36.61,1.33,32.73,32.73,0,0,0,12.89-9.68l5.15,5.86a39.63,39.63,0,0,1-15.19,11.2,52.93,52.93,0,0,1-44.52-2.13,43.84,43.84,0,0,1-17-16.71,48.05,48.05,0,0,1-6.13-24.35,50.47,50.47,0,0,1,5.78-24.26,42.57,42.57,0,0,1,15.91-16.8,46,46,0,0,1,45.41-.09,42.4,42.4,0,0,1,15.81,16.62,50,50,0,0,1,5.78,24.17Zm-61.67-37.06a33.22,33.22,0,0,0-12.53,12.27,39.9,39.9,0,0,0-5.42,17.86h71.09a37.13,37.13,0,0,0-5.33-17.77,34.5,34.5,0,0,0-30.22-16.71A35.56,35.56,0,0,0,1739.67,1089.68Z" transform="translate(-53.28 -803.18)"/><path class="cls-1" d="M1857,1168.33q-10.12-3.37-15.82-8.53l4.09-7.11a47,47,0,0,0,14.66,8,55.46,55.46,0,0,0,18.75,3.2q14,0,20.71-4.62a14.73,14.73,0,0,0,6.66-12.8q0-5.87-3.64-9.24a22.52,22.52,0,0,0-9-5q-5.33-1.59-14.75-3.37a123.78,123.78,0,0,1-17.77-4.27,27.77,27.77,0,0,1-11.55-7.47q-4.8-5.15-4.8-14.21,0-11,9.15-18.22t26-7.2a63.67,63.67,0,0,1,17.59,2.49,44.1,44.1,0,0,1,14.22,6.57l-4.09,7.11a42.48,42.48,0,0,0-13-6.22,53,53,0,0,0-14.93-2.13q-13,0-19.55,4.8a14.9,14.9,0,0,0-6.58,12.62q0,6.23,3.74,9.68a23.39,23.39,0,0,0,9.15,5.16,156,156,0,0,0,15.2,3.64,131.54,131.54,0,0,1,17.5,4.18,26.55,26.55,0,0,1,11.29,7.2q4.62,5,4.62,13.68,0,11.57-9.6,18.49t-27,6.93A67,67,0,0,1,1857,1168.33Z" transform="translate(-53.28 -803.18)"/><polygon class="cls-1" points="351.19 276.86 351.19 276.86 350.16 276.31 316.5 258.4 316.5 258.4 301.75 250.55 256.87 226.68 256.87 226.68 230.9 212.86 230.9 212.86 189.85 191.03 201.14 231.58 201.14 231.58 203.77 241.02 218.68 294.58 218.68 294.58 224.78 316.47 244.35 386.77 264.42 357.44 264.42 357.44 280.86 333.39 329.39 393.81 357.78 371.01 317.61 321.01 317.61 321.01 309.24 310.59 369.24 286.46 351.19 276.86"/><path class="cls-1" d="M240.37,1150.55c-7.13,0-18.62-12.89-28.22-41.7a294,294,0,0,1-11-47.27h41.12l-7.47-26.82H197.85c-1.29-14.3-2-29.22-2-44.49s.68-30.18,2-44.48h85c1.29,14.3,2,29.21,2,44.48,0,1.56,0,3.1-.05,4.65L311.31,1009c.22-6.24.36-12.5.36-18.76,0-14.93-.63-29.88-1.89-44.48h84.57a160.45,160.45,0,0,1,0,89H359.68l53,28.21c1.32-3.12,2.59-6.26,3.74-9.46a12.39,12.39,0,0,0,.59-1.68,187,187,0,0,0,0-123.11,12.39,12.39,0,0,0-.59-1.68c-26-72.14-95.1-123.86-176.08-123.86S90.27,854.9,64.29,927a12.43,12.43,0,0,0-.6,1.68,187.19,187.19,0,0,0,0,123.11,14,14,0,0,0,.6,1.68c26,72.14,95.1,123.86,176.08,123.86a187,187,0,0,0,33.26-3l-12.85-46.17C253.27,1143.49,245.63,1150.55,240.37,1150.55ZM383.88,919H306.71c-4.78-32.9-13-62.4-24.44-83.4A161,161,0,0,1,383.88,919ZM212.15,871.7c9.6-28.8,21.09-41.7,28.22-41.7s18.61,12.9,28.21,41.7A292.87,292.87,0,0,1,279.63,919H201.11A293.72,293.72,0,0,1,212.15,871.7Zm-13.69-36.13C187,856.57,178.8,886.07,174,919H96.86A161,161,0,0,1,198.46,835.57ZM80.1,990.27a159.78,159.78,0,0,1,6.28-44.48H171c-1.25,14.6-1.89,29.55-1.89,44.48s.64,29.89,1.89,44.49H86.38A159.75,159.75,0,0,1,80.1,990.27Zm16.76,71.31H174c4.78,32.9,13,62.4,24.44,83.4A161,161,0,0,1,96.86,1061.58Z" transform="translate(-53.28 -803.18)"/></svg>